# xmcd CD database file generated by Grip 2.95
# 
# Track frame offsets:
#       150
#       16827
#       32157
#       45505
#       60222
#       66580
#       84892
#       94877
#       113170
#       127737
#       144275
#       164800
#       178370
#       194002
#       222372
#       233495
#       248275
#       265190
# 
# Disc length: 3576 seconds
# 
# Revision: 3
# Processed by: cddbd v1.4b41PL1 Copyright (c) Steve Scherf et al.
# Submitted via: Grip 2.95
# 
DISCID=f10df612
DTITLE=Tørfisk - Ti
DYEAR=1900
DGENRE=
TTITLE0=Når en sejler går i land
TTITLE1=Jalousi
TTITLE2=Farvel til søliv
TTITLE3=Motionisten
TTITLE4=Clintons antifristelser
TTITLE5=Postkort
TTITLE6=Thyborøn København
TTITLE7=Tidlig morgen
TTITLE8=Til alle tider
TTITLE9=Camping
TTITLE10=Tag drømmene med
TTITLE11=Farvel til Tut
TTITLE12=Nissum Bredning
TTITLE13=The Town I Loved So Well
TTITLE14=This Land Is My Land
TTITLE15=Alle de viser
TTITLE16=VLTJ 2000 Mix
TTITLE17=Grønlandsk forårssang
EXTD=
EXTT0=
EXTT1=
EXTT2=
EXTT3=
EXTT4=
EXTT5=
EXTT6=
EXTT7=
EXTT8=
EXTT9=
EXTT10=
EXTT11=
EXTT12=
EXTT13=
EXTT14=
EXTT15=
EXTT16=
EXTT17=
PLAYORDER=
